<svg width="232" height="64" viewBox="0 0 232 64" fill="none" xmlns="http://www.w3.org/2000/svg">
<path d="M7.17383 52V16.4531H18.1113C21.2363 16.4531 24.0277 17.1611 26.4854 18.5771C28.9593 19.9769 30.888 21.9788 32.2715 24.583C33.6549 27.1709 34.3467 30.1169 34.3467 33.4209V35.0566C34.3467 38.3607 33.6631 41.2985 32.2959 43.8701C30.945 46.4417 29.0326 48.4355 26.5586 49.8516C24.0846 51.2676 21.2933 51.9837 18.1846 52H7.17383ZM14.498 22.3857V46.1162H18.0381C20.9027 46.1162 23.0918 45.1803 24.6055 43.3086C26.1191 41.4368 26.8923 38.7594 26.9248 35.2764V33.3965C26.9248 29.7832 26.1761 27.0488 24.6787 25.1934C23.1813 23.3216 20.9922 22.3857 18.1113 22.3857H14.498ZM79.2246 44.6758H66.3828L63.9414 52H56.1533L69.3857 16.4531H76.1729L89.4785 52H81.6904L79.2246 44.6758ZM68.3604 38.7432H77.2471L72.7793 25.4375L68.3604 38.7432ZM125.519 28.709L132.184 16.4531H140.606L130.255 34.0801L140.875 52H132.354L125.519 39.5488L118.683 52H110.162L120.782 34.0801L110.431 16.4531H118.854L125.519 28.709ZM172.374 52H165.05V16.4531H172.374V52ZM228.092 52H220.768L206.51 28.6113V52H199.186V16.4531H206.51L220.792 39.8906V16.4531H228.092V52Z" fill="black" fill-opacity="0.1"/>
<path d="M3.17383 47V11.4531H14.1113C17.2363 11.4531 20.0277 12.1611 22.4854 13.5771C24.9593 14.9769 26.888 16.9788 28.2715 19.583C29.6549 22.1709 30.3467 25.1169 30.3467 28.4209V30.0566C30.3467 33.3607 29.6631 36.2985 28.2959 38.8701C26.945 41.4417 25.0326 43.4355 22.5586 44.8516C20.0846 46.2676 17.2933 46.9837 14.1846 47H3.17383ZM10.498 17.3857V41.1162H14.0381C16.9027 41.1162 19.0918 40.1803 20.6055 38.3086C22.1191 36.4368 22.8923 33.7594 22.9248 30.2764V28.3965C22.9248 24.7832 22.1761 22.0488 20.6787 20.1934C19.1813 18.3216 16.9922 17.3857 14.1113 17.3857H10.498ZM75.2246 39.6758H62.3828L59.9414 47H52.1533L65.3857 11.4531H72.1729L85.4785 47H77.6904L75.2246 39.6758ZM64.3604 33.7432H73.2471L68.7793 20.4375L64.3604 33.7432ZM121.519 23.709L128.184 11.4531H136.606L126.255 29.0801L136.875 47H128.354L121.519 34.5488L114.683 47H106.162L116.782 29.0801L106.431 11.4531H114.854L121.519 23.709ZM168.374 47H161.05V11.4531H168.374V47ZM224.092 47H216.768L202.51 23.6113V47H195.186V11.4531H202.51L216.792 34.8906V11.4531H224.092V47Z" fill="black"/>
</svg>
